<svg width="21" height="21" viewBox="0 0 21 21" fill="none" xmlns="http://www.w3.org/2000/svg">
<g id="Item &#226;&#134;&#146; Link" clip-path="url(#clip0_3_310)">
<path id="Vector" d="M14.1252 10.5397C14.3442 10.4156 14.4536 10.2186 14.4536 9.94857C14.4536 9.67855 14.3442 9.4815 14.1252 9.35744L8.52041 5.85443C8.29417 5.70847 8.05699 5.70117 7.80886 5.83253C7.56803 5.96389 7.44761 6.16824 7.44761 6.44556V13.4516C7.44761 13.7289 7.56803 13.9332 7.80886 14.0646C7.92562 14.123 8.03874 14.1522 8.14821 14.1522C8.29417 14.1522 8.41824 14.1157 8.52041 14.0427L14.1252 10.5397ZM20.0475 8.30653C20.0475 8.30653 20.0493 8.40506 20.053 8.6021C20.0566 8.79914 20.0584 9.24797 20.0584 9.94857C20.0584 10.6492 20.0548 11.1965 20.0475 11.5906C20.0402 11.9847 20.0092 12.4828 19.9545 13.0849C19.8997 13.6869 19.8176 14.2252 19.7081 14.6995C19.5914 15.2323 19.3396 15.6811 18.9528 16.046C18.566 16.4109 18.1135 16.6225 17.5954 16.6809C15.9753 16.8634 13.5268 16.9546 10.25 16.9546C6.97324 16.9546 4.52479 16.8634 2.90464 16.6809C2.38649 16.6225 1.93219 16.4109 1.54175 16.046C1.15131 15.6811 0.897711 15.2323 0.780943 14.6995C0.678772 14.2252 0.60032 13.6869 0.545585 13.0849C0.49085 12.4828 0.459834 11.9847 0.452536 11.5906C0.445238 11.1965 0.441589 10.6492 0.441589 9.94857C0.441589 9.24797 0.445238 8.70062 0.452536 8.30653C0.459834 7.91244 0.49085 7.41436 0.545585 6.81228C0.60032 6.2102 0.682421 5.67198 0.79189 5.19761C0.908657 4.66486 1.16044 4.21604 1.54723 3.85114C1.93402 3.48625 2.38649 3.2746 2.90464 3.21622C4.52479 3.03377 6.97324 2.94255 10.25 2.94255C13.5268 2.94255 15.9753 3.03377 17.5954 3.21622C18.1135 3.2746 18.5678 3.48625 18.9583 3.85114C19.3487 4.21604 19.6023 4.66486 19.7191 5.19761C19.8213 5.67198 19.8997 6.2102 19.9545 6.81228C20.0092 7.41436 20.0402 7.91244 20.0475 8.30653Z" fill="white"/>
</g>
<defs>
<clipPath id="clip0_3_310">
<rect width="20" height="20" fill="white" transform="matrix(1 0 0 -1 0.250015 20.1401)"/>
</clipPath>
</defs>
</svg>
