<svg width="27" height="21" viewBox="0 0 27 21" fill="none" xmlns="http://www.w3.org/2000/svg">
<g id="Item &#226;&#134;&#146; Link" clip-path="url(#clip0_3_314)">
<path id="Vector" d="M16.3099 10.1347C16.3099 11.6526 15.9924 13.0046 15.3575 14.1905C14.7226 15.3764 13.8177 16.3033 12.6427 16.971C11.4677 17.6388 10.1212 17.9727 8.60328 17.9727C7.51588 17.9727 6.47593 17.761 5.48341 17.3377C4.49089 16.9145 3.63703 16.3452 2.92183 15.63C2.20663 14.9148 1.63739 14.061 1.21411 13.0684C0.790833 12.0759 0.579193 11.036 0.579193 9.94857C0.579193 8.86118 0.790833 7.82122 1.21411 6.8287C1.63739 5.83619 2.20663 4.98233 2.92183 4.26713C3.63703 3.55193 4.49089 2.98269 5.48341 2.55941C6.47593 2.13613 7.51588 1.92449 8.60328 1.92449C10.6905 1.92449 12.4821 2.62509 13.9782 4.0263L11.7998 6.11716C10.9459 5.29249 9.88041 4.88016 8.60328 4.88016C7.70563 4.88016 6.87549 5.10639 6.11285 5.55886C5.35022 6.01134 4.74632 6.62619 4.30114 7.40342C3.85597 8.18065 3.63338 9.02903 3.63338 9.94857C3.63338 10.8681 3.85597 11.7165 4.30114 12.4937C4.74632 13.271 5.35022 13.8858 6.11285 14.3383C6.87549 14.7908 7.70563 15.017 8.60328 15.017C9.209 15.017 9.76547 14.9331 10.2727 14.7652C10.7799 14.5974 11.1977 14.3875 11.5261 14.1358C11.8545 13.884 12.141 13.5975 12.3854 13.2764C12.6299 12.9553 12.8087 12.6525 12.9218 12.3678C13.0349 12.0832 13.1134 11.8132 13.1572 11.5578H8.60328V8.79915H16.1785C16.2661 9.25892 16.3099 9.70409 16.3099 10.1347ZM25.8009 8.79915V11.098H23.513V13.3859H21.2141V11.098H18.9262V8.79915H21.2141V6.51124H23.513V8.79915H25.8009Z" fill="white"/>
</g>
<defs>
<clipPath id="clip0_3_314">
<rect width="25.72" height="20" fill="white" transform="matrix(1 0 0 -1 0.330017 20.1401)"/>
</clipPath>
</defs>
</svg>
