<svg width="15" height="21" viewBox="0 0 15 21" fill="none" xmlns="http://www.w3.org/2000/svg">
<g id="Item &#226;&#134;&#146; Link" clip-path="url(#clip0_3_308)">
<path id="Vector" d="M0.343994 6.67561C0.343994 5.88743 0.48083 5.14487 0.754503 4.44791C1.02818 3.75096 1.40584 3.14341 1.88751 2.62525C2.36917 2.1071 2.92382 1.65828 3.55144 1.27878C4.17906 0.89929 4.85412 0.614672 5.57662 0.424925C6.29911 0.235178 7.0362 0.140305 7.78789 0.140305C8.94097 0.140305 10.0138 0.382961 11.0063 0.868275C11.9988 1.35359 12.8052 2.05966 13.4255 2.9865C14.0459 3.91334 14.356 4.96059 14.356 6.12826C14.356 6.82887 14.2867 7.51487 14.148 8.18628C14.0094 8.85769 13.7904 9.50356 13.4912 10.1239C13.192 10.7442 12.8271 11.2897 12.3965 11.7604C11.966 12.2312 11.4369 12.607 10.8092 12.888C10.1816 13.1689 9.49196 13.3094 8.74027 13.3094C8.24401 13.3094 7.7514 13.1927 7.26244 12.9591C6.77348 12.7256 6.42318 12.4045 6.21154 11.9958C6.13856 12.2804 6.03639 12.6909 5.90502 13.2273C5.77366 13.7637 5.68791 14.1104 5.64777 14.2673C5.60763 14.4242 5.53283 14.6833 5.42336 15.0445C5.31389 15.4058 5.21902 15.6648 5.13874 15.8217C5.05846 15.9787 4.9417 16.2067 4.78844 16.5059C4.63518 16.8051 4.46733 17.0879 4.28488 17.3543C4.10243 17.6207 3.8762 17.9363 3.60617 18.3012L3.45292 18.356L3.35439 18.2465C3.24492 17.1007 3.19019 16.4147 3.19019 16.1885C3.19019 15.5171 3.26864 14.7635 3.42555 13.9279C3.58245 13.0923 3.82511 12.0432 4.15352 10.7807C4.48193 9.51816 4.67167 8.77741 4.72276 8.55848C4.48922 8.08411 4.37246 7.46743 4.37246 6.70845C4.37246 6.10272 4.5622 5.53348 4.9417 5.00073C5.32119 4.46798 5.80285 4.20161 6.38669 4.20161C6.83186 4.20161 7.17851 4.34939 7.42664 4.64496C7.67477 4.94052 7.79884 5.31454 7.79884 5.76701C7.79884 6.24868 7.63828 6.94563 7.31717 7.85787C6.99606 8.77012 6.83551 9.45247 6.83551 9.90495C6.83551 10.3647 6.99971 10.746 7.32812 11.0489C7.65653 11.3518 8.05427 11.5032 8.52133 11.5032C8.92272 11.5032 9.29492 11.412 9.63792 11.2295C9.98092 11.0471 10.2674 10.7989 10.4973 10.4851C10.7271 10.1713 10.9315 9.82467 11.1103 9.44518C11.2891 9.06568 11.4277 8.66247 11.5263 8.23554C11.6248 7.80861 11.6978 7.40358 11.7452 7.02044C11.7926 6.63729 11.8164 6.27422 11.8164 5.93122C11.8164 4.66868 11.4168 3.68528 10.6177 2.98103C9.81854 2.27678 8.77676 1.92465 7.49232 1.92465C6.03274 1.92465 4.81398 2.39719 3.83606 3.34228C2.85813 4.28736 2.36917 5.48604 2.36917 6.93833C2.36917 7.25944 2.41478 7.56961 2.50601 7.86882C2.59723 8.16804 2.69575 8.40522 2.80157 8.58037C2.90739 8.75552 3.00592 8.92155 3.09714 9.07845C3.18837 9.23536 3.23398 9.34665 3.23398 9.41233C3.23398 9.61668 3.17924 9.88305 3.06977 10.2115C2.9603 10.5399 2.82529 10.7041 2.66474 10.7041C2.65014 10.7041 2.58811 10.6931 2.47864 10.6712C2.10645 10.5618 1.77621 10.3574 1.48795 10.0582C1.19968 9.75899 0.97709 9.41416 0.820185 9.02372C0.663279 8.63328 0.544687 8.23919 0.46441 7.84145C0.384133 7.44372 0.343994 7.0551 0.343994 6.67561Z" fill="white"/>
</g>
<defs>
<clipPath id="clip0_3_308">
<rect width="14.3" height="20" fill="white" transform="matrix(1 0 0 -1 0.200012 20.1401)"/>
</clipPath>
</defs>
</svg>
