<svg width="18" height="21" viewBox="0 0 18 21" fill="none" xmlns="http://www.w3.org/2000/svg">
<g id="Item &#226;&#134;&#146; Link" clip-path="url(#clip0_3_316)">
<path id="Vector" d="M14.2842 11.3499C15.2549 11.3499 16.0814 11.6911 16.7637 12.3735C17.4461 13.0558 17.7873 13.8823 17.7873 14.8529C17.7873 15.8236 17.4461 16.6501 16.7637 17.3324C16.0814 18.0148 15.2549 18.356 14.2842 18.356C13.3136 18.356 12.4871 18.0148 11.8048 17.3324C11.1224 16.6501 10.7812 15.8236 10.7812 14.8529C10.7812 14.7654 10.7885 14.6413 10.8031 14.4808L6.86225 12.5103C6.19083 13.1379 5.39536 13.4517 4.47582 13.4517C3.50519 13.4517 2.6787 13.1106 1.99634 12.4282C1.31399 11.7458 0.972809 10.9194 0.972809 9.94873C0.972809 8.97811 1.31399 8.15162 1.99634 7.46926C2.6787 6.7869 3.50519 6.44572 4.47582 6.44572C5.39536 6.44572 6.19083 6.75953 6.86225 7.38716L10.8031 5.41671C10.7885 5.25616 10.7812 5.13209 10.7812 5.04452C10.7812 4.07389 11.1224 3.2474 11.8048 2.56504C12.4871 1.88269 13.3136 1.54151 14.2842 1.54151C15.2549 1.54151 16.0814 1.88269 16.7637 2.56504C17.4461 3.2474 17.7873 4.07389 17.7873 5.04452C17.7873 6.01514 17.4461 6.84164 16.7637 7.52399C16.0814 8.20635 15.2549 8.54753 14.2842 8.54753C13.3647 8.54753 12.5692 8.23372 11.8978 7.60609L7.95694 9.57654C7.97153 9.73709 7.97883 9.86116 7.97883 9.94873C7.97883 10.0363 7.97153 10.1604 7.95694 10.3209L11.8978 12.2914C12.5692 11.6637 13.3647 11.3499 14.2842 11.3499Z" fill="white"/>
</g>
<defs>
<clipPath id="clip0_3_316">
<rect width="17.16" height="20" fill="white" transform="matrix(1 0 0 -1 0.800018 20.1401)"/>
</clipPath>
</defs>
</svg>
