<svg width="21" height="21" viewBox="0 0 21 21" fill="none" xmlns="http://www.w3.org/2000/svg">
<g id="Item &#226;&#134;&#146; Link" clip-path="url(#clip0_3_306)">
<path id="Vector" d="M19.9519 0.260395C20.1928 0.435545 20.2913 0.669079 20.2475 0.960997L17.4451 17.7754C17.4086 17.9871 17.2918 18.1513 17.0948 18.2681C16.9926 18.3264 16.8795 18.3556 16.7554 18.3556C16.6752 18.3556 16.5876 18.3374 16.4927 18.3009L11.5338 16.2757L8.88461 19.5051C8.75325 19.6729 8.57445 19.7568 8.34821 19.7568C8.25334 19.7568 8.17306 19.7422 8.10738 19.713C7.96872 19.662 7.85743 19.5762 7.7735 19.4558C7.68957 19.3354 7.64761 19.2022 7.64761 19.0562V15.2358L17.1057 3.64299L5.4035 13.7689L1.07947 11.9955C0.809444 11.8933 0.663485 11.6926 0.641591 11.3934C0.626996 11.1015 0.743763 10.8862 0.991892 10.7475L19.2075 0.238501C19.317 0.172819 19.4338 0.139978 19.5578 0.139978C19.7038 0.139978 19.8352 0.180117 19.9519 0.260395Z" fill="white"/>
</g>
<defs>
<clipPath id="clip0_3_306">
<rect width="20" height="20" fill="white" transform="matrix(1 0 0 -1 0.45002 20.1401)"/>
</clipPath>
</defs>
</svg>
