<svg width="19" height="21" viewBox="0 0 19 21" fill="none" xmlns="http://www.w3.org/2000/svg">
<g id="Item &#226;&#134;&#146; Link" clip-path="url(#clip0_3_312)">
<path id="Vector" d="M17.4345 4.60648C16.9456 5.32168 16.3544 5.93105 15.6611 6.43461C15.6684 6.53678 15.6721 6.69004 15.6721 6.89438C15.6721 7.84311 15.5334 8.79002 15.2561 9.7351C14.9788 10.6802 14.5573 11.587 13.9917 12.4554C13.4261 13.3239 12.7529 14.092 11.972 14.7597C11.1911 15.4275 10.2497 15.9602 9.14771 16.358C8.04572 16.7557 6.8671 16.9546 5.61186 16.9546C3.63411 16.9546 1.82423 16.4255 0.18219 15.3673C0.437618 15.3965 0.722237 15.4111 1.03605 15.4111C2.67808 15.4111 4.14132 14.9075 5.42576 13.9004C4.65947 13.8858 3.97347 13.6504 3.36774 13.1943C2.76201 12.7382 2.34603 12.1562 2.11979 11.4483C2.36062 11.4848 2.58321 11.503 2.78755 11.503C3.10137 11.503 3.41153 11.4629 3.71804 11.3826C2.90067 11.2148 2.22379 10.8079 1.68739 10.162C1.15099 9.51617 0.882792 8.7663 0.882792 7.91244V7.86866C1.37905 8.14598 1.9118 8.29559 2.48104 8.31748C1.99938 7.99637 1.61623 7.57674 1.33162 7.05859C1.047 6.54043 0.904686 5.97849 0.904686 5.37276C0.904686 4.73054 1.06524 4.13576 1.38635 3.58842C2.2694 4.67581 3.34402 5.54609 4.61021 6.19925C5.87641 6.85242 7.232 7.21549 8.67699 7.28847C8.61861 7.01115 8.58941 6.74113 8.58941 6.4784C8.58941 5.50048 8.93424 4.66669 9.6239 3.97703C10.3136 3.28738 11.1473 2.94255 12.1253 2.94255C13.147 2.94255 14.0081 3.31474 14.7087 4.05913C15.5042 3.90588 16.2522 3.62126 16.9529 3.20527C16.6828 4.04454 16.1647 4.69405 15.3984 5.15382C16.0771 5.08084 16.7558 4.8984 17.4345 4.60648Z" fill="white"/>
</g>
<defs>
<clipPath id="clip0_3_312">
<rect width="18.58" height="20" fill="white" transform="matrix(1 0 0 -1 3.05176e-05 20.1401)"/>
</clipPath>
</defs>
</svg>
