<svg width="13" height="21" viewBox="0 0 13 21" fill="none" xmlns="http://www.w3.org/2000/svg">
<g id="Nav &#226;&#134;&#146; List &#226;&#134;&#146; Item" clip-path="url(#clip0_3_18)">
<path id="Vector" d="M11.0501 7.83515C11.1231 7.90813 11.1596 7.99206 11.1596 8.08693C11.1596 8.18181 11.1231 8.26573 11.0501 8.33871L5.94884 13.44C5.87586 13.5129 5.79194 13.5494 5.69706 13.5494C5.60219 13.5494 5.51827 13.5129 5.44529 13.44L0.344027 8.33871C0.271048 8.26573 0.234558 8.18181 0.234558 8.08693C0.234558 7.99206 0.271048 7.90813 0.344027 7.83515L0.891373 7.28781C0.964352 7.21483 1.04828 7.17834 1.14315 7.17834C1.23802 7.17834 1.32195 7.21483 1.39493 7.28781L5.69706 11.5899L9.9992 7.28781C10.0722 7.21483 10.1561 7.17834 10.251 7.17834C10.3459 7.17834 10.4298 7.21483 10.5028 7.28781L11.0501 7.83515Z" fill="#C0C4D7"/>
</g>
<defs>
<clipPath id="clip0_3_18">
<rect width="12.86" height="20" fill="white" transform="matrix(1 0 0 -1 0.109985 20.03)"/>
</clipPath>
</defs>
</svg>
